<svg xmlns="http://www.w3.org/2000/svg" xmlns:xlink="http://www.w3.org/1999/xlink" version="1.1" id="Layer_1" x="0px" y="0px" width="100px" height="100px" viewBox="0 0 100 100" enable-background="new 0 0 100 100" xml:space="preserve">
<path d="M11.338,51.723c0-3.728,1.175-7.636,3.002-10.762c-0.555,0.096-0.884,0.153-0.884,0.153v0.042  C8.19,41.581,6,46.144,6,51.723c0,5.58,2.19,10.143,7.456,10.567v0.006c0,0,0.184,0.007,0.495,0.02  c0.103,0.003,0.199,0.015,0.304,0.016C12.479,59.23,11.338,55.391,11.338,51.723z"/>
<path d="M70.271,47.313c-0.53-9.559-5.797-15.111-8.726-14.576c-0.851,0.156-34.722,6.05-45.095,7.854  c-2.413,3.765-3.459,8.995-3.459,11.13c0,2.051,0.963,6.959,3.176,10.679c1.396,0.055,3.291,0.127,5.504,0.213v5.158l0.012,0.223  c0.184,1.698,1.648,4.221,4.92,4.221c0.009,0,0.019,0,0.027,0h7.13c3.639,0,4.959-2.658,4.959-4.443v-4.5  c12.678,0.489,25.464,0.979,25.865,0.979C66.618,64.251,70.796,56.873,70.271,47.313z M34.589,67.695  c-0.014,0.154-0.037,0.387-0.829,0.387h-7.139c-0.268,0-0.702,0.005-0.818-0.475v-4.834c2.716,0.105,5.703,0.222,8.784,0.341  L34.589,67.695z"/>
<path d="M74.989,39.047c-0.544,0-1.077-0.268-1.394-0.76c-0.492-0.769-0.27-1.792,0.499-2.285l12.399-7.956  c0.767-0.493,1.79-0.271,2.284,0.499c0.492,0.768,0.27,1.791-0.499,2.284L75.88,38.786C75.604,38.963,75.294,39.047,74.989,39.047z"/>
<path d="M87.385,66.843c-0.305,0-0.614-0.084-0.891-0.262l-12.399-7.956c-0.769-0.494-0.991-1.517-0.499-2.285  c0.494-0.77,1.517-0.994,2.284-0.499l12.399,7.957c0.769,0.494,0.991,1.516,0.499,2.284C88.462,66.574,87.93,66.843,87.385,66.843z"/>
<path d="M92.347,48.967H76.641c-0.914,0-1.653-0.74-1.653-1.653s0.739-1.653,1.653-1.653h15.706c0.914,0,1.653,0.74,1.653,1.653  S93.261,48.967,92.347,48.967z"/>
</svg>